<svg aria-hidden="true" style="position: absolute; width: 0; height: 0; overflow: hidden;" version="1.1" xmlns="http://www.w3.org/2000/svg" xmlns:xlink="http://www.w3.org/1999/xlink">
<defs>
<symbol id="icon-user-icon" viewBox="0 0 32 32">
<path fill="#fff" style="fill: var(--color1, #fff)" d="M10.667 13.333c0-2.946 2.388-5.333 5.333-5.333s5.333 2.388 5.333 5.333c0 2.945-2.388 5.333-5.333 5.333s-5.333-2.388-5.333-5.333zM16 10.667c-1.473 0-2.667 1.194-2.667 2.667s1.194 2.667 2.667 2.667 2.667-1.194 2.667-2.667c0-1.473-1.194-2.667-2.667-2.667z"></path>
<path fill="#fff" style="fill: var(--color1, #fff)" d="M2.667 16c0-7.364 5.97-13.333 13.333-13.333s13.333 5.97 13.333 13.333c0 7.364-5.97 13.333-13.333 13.333s-13.333-5.97-13.333-13.333zM16 5.333c-5.891 0-10.667 4.776-10.667 10.667 0 2.917 1.171 5.56 3.067 7.485 0.472-0.932 1.309-1.671 2.224-2.194 1.442-0.824 3.346-1.291 5.376-1.291s3.933 0.467 5.376 1.291c0.915 0.523 1.752 1.262 2.224 2.194 1.897-1.926 3.067-4.569 3.067-7.485 0-5.891-4.776-10.667-10.667-10.667zM21.332 25.24c0.001-0.023 0.001-0.051 0.001-0.098 0-0.367-0.272-0.96-1.281-1.536-0.971-0.555-2.401-0.94-4.053-0.94s-3.082 0.385-4.053 0.94c-1.008 0.576-1.281 1.169-1.281 1.536 0 0.047 0 0.075 0.001 0.098 1.569 0.907 3.39 1.426 5.332 1.426s3.763-0.519 5.332-1.426z"></path>
</symbol>
</defs>
</svg>
